<?xml version="1.0" encoding="utf-8"?>
<!-- Generator: Adobe Illustrator 24.3.0, SVG Export Plug-In . SVG Version: 6.00 Build 0)  -->
<svg version="1.1" id="图层_1" xmlns="http://www.w3.org/2000/svg" xmlns:xlink="http://www.w3.org/1999/xlink" x="0px" y="0px"
	 viewBox="0 0 44.8 48.2" style="enable-background:new 0 0 44.8 48.2;" xml:space="preserve">
<style type="text/css">
	.st0{fill:#D37700;}
</style>
<path class="st0" d="M0,27.5c0,1,0.8,1.7,1.7,1.7c1,0,1.7-0.8,1.7-1.7c0-1-0.8-1.7-1.7-1.7c0,0,0,0,0,0C0.8,25.8,0,26.6,0,27.5
	C0,27.5,0,27.5,0,27.5z"/>
<path class="st0" d="M34.8,20.8l-14.5-0.1c-0.8,0.1-1.5,0.8-1.4,1.7c0,0,0,0,0,0c-0.1,0.8,0.6,1.6,1.4,1.7l14.5,0.1
	c0.8-0.1,1.5-0.8,1.4-1.7c0,0,0,0,0,0C36.2,21.7,35.6,20.9,34.8,20.8L34.8,20.8z M34.8,27.6l-14.5-0.1c-0.8,0.1-1.5,0.8-1.4,1.7
	c-0.1,0.8,0.6,1.6,1.4,1.7L34.8,31c0.8-0.1,1.5-0.8,1.4-1.7c0,0,0,0,0,0C36.2,28.5,35.6,27.7,34.8,27.6z"/>
<path class="st0" d="M34.5,0H17.3c-3.8,0-6.9,3.1-6.9,6.9H6.9C3.1,6.9,0,10,0,13.8v6.9c0,1,0.8,1.7,1.7,1.7c1,0,1.7-0.8,1.7-1.7
	v-6.9c0-1.9,1.5-3.4,3.4-3.4h3.5v24.1c0,3.8,3.1,6.9,6.9,6.9H31c0,1.9-1.5,3.4-3.4,3.4H6.9c-1.9,0-3.5-1.5-3.5-3.5v-6.9
	c-0.1-1-0.9-1.7-1.9-1.6c-0.9,0.1-1.5,0.7-1.6,1.6v6.9c0,3.8,3.1,6.9,6.9,6.9h20.7c3.8,0,6.9-3.1,6.9-6.9H38c3.8,0,6.9-3.1,6.9-6.9
	V10.3L34.5,0z M34.5,3.4l6.9,6.9h-3.5c-1.9,0-3.4-1.6-3.4-3.5C34.5,6.9,34.5,3.4,34.5,3.4z M37.9,37.9H17.2c-1.9,0-3.4-1.5-3.4-3.4
	V6.9c0-1.9,1.5-3.4,3.4-3.4h13.7v3.4c0,3.8,3.1,6.9,6.9,6.9h3.5v20.7C41.3,36.4,39.8,37.9,37.9,37.9z"/>
</svg>
