<?xml version="1.0" encoding="utf-8"?>
<!-- Generator: Adobe Illustrator 24.3.0, SVG Export Plug-In . SVG Version: 6.00 Build 0)  -->
<svg version="1.1" id="图层_1" xmlns="http://www.w3.org/2000/svg" xmlns:xlink="http://www.w3.org/1999/xlink" x="0px" y="0px"
	 viewBox="0 0 48.8 48.8" style="enable-background:new 0 0 48.8 48.8;" xml:space="preserve">
<style type="text/css">
	.st0{fill:#D37700;}
</style>
<path class="st0" d="M45.4,37c-0.5,0.9-1.6,1.1-2.5,0.6s-1.1-1.6-0.6-2.5l0,0c5.9-9.8,2.7-22.6-7.2-28.5S12.5,3.9,6.6,13.7
	s-2.7,22.6,7.2,28.5c6.6,3.9,14.8,3.9,21.3,0c0.9-0.5,2-0.3,2.5,0.6s0.3,2-0.6,2.5c0,0,0,0,0,0c-11.6,6.9-26.5,3.1-33.5-8.4
	S0.4,10.4,11.9,3.5s26.5-3.1,33.5,8.4C50,19.6,50,29.3,45.4,37z"/>
<path class="st0" d="M16.6,23.1l4.8,4.8L32.3,17c0.6-0.8,1.8-0.9,2.6-0.3c0.8,0.6,0.9,1.8,0.3,2.6c-0.1,0.1-0.2,0.2-0.3,0.3
	L22.7,31.8c-0.7,0.7-1.9,0.7-2.6,0c0,0,0,0,0,0L14,25.7c-0.7-0.7-0.8-1.8-0.1-2.6c0.7-0.7,1.8-0.8,2.6-0.1
	C16.5,23.1,16.5,23.1,16.6,23.1L16.6,23.1z"/>
<path d="M16.6,23.1"/>
</svg>
